<svg width="16" height="16" viewBox="0 0 16 16" fill="none" xmlns="http://www.w3.org/2000/svg">
<path d="M11.7467 7.16667C11.46 7.16667 11.2333 6.93334 11.2333 6.65334C11.2333 6.40667 10.9867 5.89334 10.5733 5.44667C10.1667 5.01334 9.72 4.76 9.34666 4.76C9.06 4.76 8.83333 4.52667 8.83333 4.24667C8.83333 3.96667 9.06666 3.73334 9.34666 3.73334C10.0133 3.73334 10.7133 4.09334 11.3267 4.74C11.9 5.34667 12.2667 6.1 12.2667 6.64667C12.2667 6.93334 12.0333 7.16667 11.7467 7.16667Z" fill="#FF006B"/>
<path d="M14.1533 7.16665C13.8667 7.16665 13.64 6.93331 13.64 6.65331C13.64 4.28665 11.7133 2.36665 9.35333 2.36665C9.06666 2.36665 8.84 2.13331 8.84 1.85331C8.84 1.57331 9.06666 1.33331 9.34666 1.33331C12.28 1.33331 14.6667 3.71998 14.6667 6.65331C14.6667 6.93331 14.4333 7.16665 14.1533 7.16665Z" fill="#FF006B"/>
<path d="M7.36666 9.96665L6.13333 11.2C5.87333 11.46 5.45999 11.46 5.19333 11.2066C5.12 11.1333 5.04666 11.0666 4.97333 10.9933C4.28666 10.3 3.66666 9.57331 3.11333 8.81331C2.56666 8.05331 2.12666 7.29331 1.80666 6.53998C1.49333 5.77998 1.33333 5.05331 1.33333 4.35998C1.33333 3.90665 1.41333 3.47331 1.57333 3.07331C1.73333 2.66665 1.98666 2.29331 2.33999 1.95998C2.76666 1.53998 3.23333 1.33331 3.72666 1.33331C3.91333 1.33331 4.1 1.37331 4.26666 1.45331C4.44 1.53331 4.59333 1.65331 4.71333 1.82665L6.26 4.00665C6.38 4.17331 6.46666 4.32665 6.52666 4.47331C6.58666 4.61331 6.62 4.75331 6.62 4.87998C6.62 5.03998 6.57333 5.19998 6.48 5.35331C6.39333 5.50665 6.26666 5.66665 6.10666 5.82665L5.59999 6.35331C5.52666 6.42665 5.49333 6.51331 5.49333 6.61998C5.49333 6.67331 5.5 6.71998 5.51333 6.77331C5.53333 6.82665 5.55333 6.86665 5.56666 6.90665C5.68666 7.12665 5.89333 7.41331 6.18666 7.75998C6.48666 8.10665 6.80666 8.45998 7.15333 8.81331C7.22 8.87998 7.29333 8.94665 7.35999 9.01331C7.62666 9.27331 7.63333 9.69998 7.36666 9.96665Z" fill="#FF006B"/>
<path d="M14.6467 12.22C14.6467 12.4067 14.6133 12.6 14.5467 12.7867C14.5267 12.84 14.5067 12.8933 14.48 12.9467C14.3667 13.1867 14.22 13.4133 14.0267 13.6267C13.7 13.9867 13.34 14.2467 12.9333 14.4133C12.9267 14.4133 12.92 14.42 12.9133 14.42C12.52 14.58 12.0933 14.6667 11.6333 14.6667C10.9533 14.6667 10.2267 14.5067 9.45999 14.18C8.69333 13.8533 7.92666 13.4133 7.16666 12.86C6.90666 12.6667 6.64666 12.4733 6.39999 12.2667L8.57999 10.0867C8.76666 10.2267 8.93333 10.3333 9.07333 10.4067C9.10666 10.42 9.14666 10.44 9.19333 10.46C9.24666 10.48 9.29999 10.4867 9.35999 10.4867C9.47333 10.4867 9.55999 10.4467 9.63333 10.3733L10.14 9.87332C10.3067 9.70665 10.4667 9.57999 10.62 9.49999C10.7733 9.40665 10.9267 9.35999 11.0933 9.35999C11.22 9.35999 11.3533 9.38665 11.5 9.44665C11.6467 9.50665 11.8 9.59332 11.9667 9.70665L14.1733 11.2733C14.3467 11.3933 14.4667 11.5333 14.54 11.7C14.6067 11.8667 14.6467 12.0333 14.6467 12.22Z" fill="#FF006B"/>
</svg>
