<svg width="16" height="16" viewBox="0 0 16 16" fill="none" xmlns="http://www.w3.org/2000/svg">
<path d="M7.33333 1.33325H5.99999C2.66666 1.33325 1.33333 2.66659 1.33333 5.99992V9.99992C1.33333 13.3333 2.66666 14.6666 5.99999 14.6666H9.99999C13.3333 14.6666 14.6667 13.3333 14.6667 9.99992V8.66658" stroke="#6E7191" stroke-linecap="round" stroke-linejoin="round"/>
<path d="M10.6933 2.01326L5.44 7.26659C5.24 7.46659 5.04 7.85992 5 8.14659L4.71333 10.1533C4.60666 10.8799 5.12 11.3866 5.84666 11.2866L7.85333 10.9999C8.13333 10.9599 8.52666 10.7599 8.73333 10.5599L13.9867 5.30659C14.8933 4.39992 15.32 3.34659 13.9867 2.01326C12.6533 0.679924 11.6 1.10659 10.6933 2.01326Z" stroke="#6E7191" stroke-miterlimit="10" stroke-linecap="round" stroke-linejoin="round"/>
<path d="M9.94 2.7666C10.3867 4.35993 11.6333 5.6066 13.2333 6.05993" stroke="#6E7191" stroke-miterlimit="10" stroke-linecap="round" stroke-linejoin="round"/>
</svg>
